<svg id="visual" viewBox="0 0 900 600" width="900" height="600" xmlns="http://www.w3.org/2000/svg" xmlns:xlink="http://www.w3.org/1999/xlink" version="1.1"><rect x="0" y="0" width="900" height="600" fill="#E4F2F2"></rect><path d="M0 528L25 512.7C50 497.3 100 466.7 150 461.3C200 456 250 476 300 494.8C350 513.7 400 531.3 450 537.5C500 543.7 550 538.3 600 468.2C650 398 700 263 750 202.3C800 141.7 850 155.3 875 162.2L900 169L900 601L875 601C850 601 800 601 750 601C700 601 650 601 600 601C550 601 500 601 450 601C400 601 350 601 300 601C250 601 200 601 150 601C100 601 50 601 25 601L0 601Z" fill="#CADFDF" stroke-linecap="round" stroke-linejoin="miter"></path></svg>